<?xml version="1.0" encoding="UTF-8" standalone="no"?>
<svg
   width="149"
   height="24"
   viewBox="0 0 149 24"
   fill="none"
   version="1.1"
   id="svg4"
   sodipodi:docname="antoninsmid_.svg"
   inkscape:version="1.2.2 (b0a8486541, 2022-12-01)"
   xmlns:inkscape="http://www.inkscape.org/namespaces/inkscape"
   xmlns:sodipodi="http://sodipodi.sourceforge.net/DTD/sodipodi-0.dtd"
   xmlns="http://www.w3.org/2000/svg"
   xmlns:svg="http://www.w3.org/2000/svg">
  <defs
     id="defs8" />
  <sodipodi:namedview
     id="namedview6"
     pagecolor="#ffffff"
     bordercolor="#000000"
     borderopacity="0.25"
     inkscape:showpageshadow="2"
     inkscape:pageopacity="0.0"
     inkscape:pagecheckerboard="0"
     inkscape:deskcolor="#d1d1d1"
     showgrid="false"
     inkscape:zoom="6.349724"
     inkscape:cx="106.93378"
     inkscape:cy="22.20569"
     inkscape:window-width="1920"
     inkscape:window-height="1131"
     inkscape:window-x="0"
     inkscape:window-y="0"
     inkscape:window-maximized="1"
     inkscape:current-layer="text222" />
  <g
     aria-label="/smidra"
     id="text222"
     style="font-size:24px;font-family:'IBM Plex Serif';-inkscape-font-specification:'IBM Plex Serif';fill:#000000">
    <path
       d="m 32.294515,23.120408 7.152,-21.3839995 h 2.928 l -7.152,21.3839995 z"
       style="font-weight:bold"
       id="path205" />
    <path
       d="m 49.190493,19.784408 q -1.824,0 -3.072,-0.576 -1.248,-0.6 -2.232,-1.68 l 2.088,-2.112 q 0.672,0.744 1.488,1.176 0.816,0.432 1.848,0.432 1.056,0 1.464,-0.312 0.408,-0.336 0.408,-0.888 0,-0.888 -1.272,-1.056 l -1.368,-0.168 q -4.248,-0.528 -4.248,-3.888 0,-0.9119995 0.336,-1.6559995 0.36,-0.768 0.984,-1.296 0.648,-0.552 1.536,-0.84 0.912,-0.312 2.04,-0.312 0.984,0 1.728,0.144 0.768,0.12 1.344,0.384 0.6,0.24 1.08,0.624 0.504,0.36 0.984,0.816 l -2.04,2.0879995 q -0.6,-0.6 -1.368,-0.9359995 -0.744,-0.36 -1.536,-0.36 -0.912,0 -1.296,0.288 -0.384,0.288 -0.384,0.7679995 0,0.504 0.264,0.792 0.288,0.264 1.056,0.384 l 1.416,0.192 q 4.152,0.552 4.152,3.792 0,0.912 -0.384,1.68 -0.384,0.768 -1.104,1.344 -0.696,0.552 -1.704,0.864 -0.984,0.312 -2.208,0.312 z"
       style="font-weight:bold"
       id="path207" />
    <path
       d="M 57.014486,19.496408 V 6.8964085 h 3.552 v 2.136 h 0.144 q 0.336,-1.008 1.152,-1.704 0.816,-0.72 2.232,-0.72 1.296,0 2.208,0.648 0.912,0.648 1.32,1.896 h 0.072 q 0.168,-0.528 0.504,-0.984 0.36,-0.48 0.864,-0.816 0.504,-0.336 1.128,-0.528 0.624,-0.216 1.344,-0.216 1.824,0 2.784,1.296 0.984,1.296 0.984,3.6959995 v 7.896 h -3.552 v -7.608 q 0,-2.3999995 -1.728,-2.3999995 -0.792,0 -1.44,0.456 -0.648,0.4559995 -0.648,1.3919995 v 8.16 h -3.552 v -7.608 q 0,-2.3999995 -1.728,-2.3999995 -0.384,0 -0.768,0.12 -0.36,0.096 -0.672,0.336 -0.288,0.2399995 -0.48,0.5999995 -0.168,0.336 -0.168,0.792 v 8.16 z"
       style="font-weight:bold"
       id="path209" />
    <path
       d="m 80.246465,5.5524085 q -1.08,0 -1.584,-0.48 -0.48,-0.504 -0.48,-1.272 v -0.528 q 0,-0.768 0.48,-1.248 0.504,-0.504 1.584,-0.504 1.08,0 1.56,0.504 0.504,0.48 0.504,1.248 v 0.528 q 0,0.768 -0.504,1.272 -0.48,0.48 -1.56,0.48 z m -1.776,1.344 h 3.552 V 19.496408 h -3.552 z"
       style="font-weight:bold"
       id="path211" />
    <path
       d="m 93.062448,17.384408 h -0.12 q -0.144,0.504 -0.456,0.96 -0.312,0.432 -0.768,0.768 -0.432,0.312 -1.008,0.48 -0.552,0.192 -1.152,0.192 -2.4,0 -3.624,-1.68 -1.224,-1.704 -1.224,-4.92 0,-3.2159995 1.224,-4.8959995 1.224,-1.68 3.624,-1.68 1.224,0 2.16,0.672 0.96,0.672 1.224,1.728 h 0.12 v -7.272 h 3.552 V 19.496408 h -3.552 z m -2.328,-0.48 q 1.008,0 1.656,-0.48 0.672,-0.504 0.672,-1.368 v -3.72 q 0,-0.864 -0.672,-1.3439995 -0.648,-0.504 -1.656,-0.504 -1.008,0 -1.68,0.7199995 -0.648,0.696 -0.648,1.896 v 2.184 q 0,1.2 0.648,1.92 0.672,0.696 1.68,0.696 z"
       style="font-weight:bold"
       id="path213" />
    <path
       d="M 99.926443,19.496408 V 6.8964085 h 3.551997 v 2.736 h 0.12 q 0.096,-0.528 0.336,-1.008 0.24,-0.504 0.624,-0.888 0.408,-0.384 0.96,-0.6 0.552,-0.24 1.296,-0.24 h 0.624 v 3.3119995 h -0.888 q -1.56,0 -2.328,0.408 -0.744,0.408 -0.744,1.512 v 7.368 z"
       style="font-weight:bold"
       id="path215" />
    <path
       d="m 118.59843,19.496408 q -0.96,0 -1.608,-0.6 -0.624,-0.6 -0.792,-1.608 h -0.144 q -0.288,1.224 -1.272,1.872 -0.984,0.624 -2.424,0.624 -1.896,0 -2.904,-1.008 -1.008,-1.008 -1.008,-2.664 0,-1.992 1.44,-2.952 1.464,-0.984 3.96,-0.984 h 1.992 v -0.792 q 0,-0.912 -0.48,-1.4399995 -0.48,-0.552 -1.608,-0.552 -1.056,0 -1.68,0.456 -0.624,0.4559995 -1.032,1.0319995 l -2.112,-1.8719995 q 0.768,-1.128 1.92,-1.752 1.176,-0.648 3.168,-0.648 2.688,0 4.032,1.176 1.344,1.176 1.344,3.4319995 v 5.52 h 1.176 v 2.76 z m -4.92,-2.184 q 0.888,0 1.512,-0.384 0.648,-0.384 0.648,-1.248 v -1.488 h -1.728 q -2.088,0 -2.088,1.416 v 0.36 q 0,0.696 0.432,1.032 0.432,0.312 1.224,0.312 z"
       style="font-weight:bold"
       id="path217" />
  </g>
  <text
     xml:space="preserve"
     style="font-size:24px;font-family:'IBM Plex Serif';-inkscape-font-specification:'IBM Plex Serif';fill:#000000"
     x="31.239466"
     y="57.632179"
     id="text222-3"><tspan
       sodipodi:role="line"
       id="tspan220-6"
       x="31.239466"
       y="57.632179"
       style="font-style:normal;font-variant:normal;font-weight:normal;font-stretch:normal;font-size:24px;font-family:'IBM Plex Sans';-inkscape-font-specification:'IBM Plex Sans'"><tspan
         style="font-weight:bold;font-size:24px"
         id="tspan280-7">/smidra</tspan></tspan></text>
</svg>
